<?xml version="1.0" standalone="no"?>
<!DOCTYPE svg PUBLIC "-//W3C//DTD SVG 20010904//EN"
 "http://www.w3.org/TR/2001/REC-SVG-20010904/DTD/svg10.dtd">
<svg version="1.0" xmlns="http://www.w3.org/2000/svg"
 width="609.000000pt" height="609.000000pt" viewBox="0 0 609.000000 609.000000"
 preserveAspectRatio="xMidYMid meet">
<metadata>
Created by potrace 1.14, written by Peter Selinger 2001-2017
</metadata>
<g transform="translate(0.000000,609.000000) scale(0.100000,-0.100000)"
fill="#000000" stroke="none">
<path d="M1049 5676 c-2 -3 -31 -7 -64 -11 -118 -13 -261 -75 -345 -148 -62
-55 -121 -142 -154 -230 -53 -141 -50 3 -52 -2197 -2 -1146 1 -2059 6 -2090
55 -339 215 -506 542 -564 71 -13 359 -15 2063 -15 1253 0 1996 3 2023 9 23 6
59 13 80 16 78 11 220 72 259 110 7 7 23 21 36 31 32 26 90 101 120 155 33 60
63 162 76 262 14 103 15 4028 1 4101 -20 99 -32 150 -40 170 -5 11 -18 40 -29
65 -39 89 -115 174 -211 235 -42 27 -163 75 -199 80 -14 2 -57 9 -96 14 -67
10 -4006 16 -4016 7z"/>
</g>
</svg>
